<?xml version="1.0" encoding="utf-8"?>
<!-- Generator: Adobe Illustrator 16.0.0, SVG Export Plug-In . SVG Version: 6.00 Build 0)  -->
<!DOCTYPE svg PUBLIC "-//W3C//DTD SVG 1.1//EN" "http://www.w3.org/Graphics/SVG/1.1/DTD/svg11.dtd">
<svg version="1.1" id="Layer_1" xmlns="http://www.w3.org/2000/svg" xmlns:xlink="http://www.w3.org/1999/xlink" x="0px" y="0px"
	 width="312px" height="62px" viewBox="0 0 312 62" enable-background="new 0 0 312 62" xml:space="preserve">
<g>
	<g>
		<polygon id="bolt_5_" fill="#FBB03B" points="106,30 94,22 78,42 94,32 106,40 122,20 		"/>
	</g>
</g>
<g>
	<g>
		<path fill="#008FE2" d="M60,51c0,5.5-4.5,10-10,10H10C4.5,61,0,56.5,0,51V11C0,5.5,4.5,1,10,1h40c5.5,0,10,4.5,10,10V51z"/>
	</g>
	<g>
		<path fill="#FFFFFF" d="M52,47c0,3.3-2.7,6-6,6H14c-3.3,0-6-2.7-6-6V15c0-3.3,2.7-6,6-6h32c3.3,0,6,2.7,6,6V47z"/>
	</g>
	<g>
		<g>
			<g>
				<g>
					<path fill="#333333" d="M28,17v6h-6v16h6v6H14V17H28z"/>
				</g>
				<g>
					<path fill="#333333" d="M46,17v28H32v-6h6V23h-6v-6H46z"/>
				</g>
			</g>
		</g>
	</g>
</g>
<g>
	<path fill="#F2F2F2" d="M196.793,17.388v-0.057h-0.027C196.774,17.351,196.783,17.369,196.793,17.388z"/>
	<path fill="#FDD800" d="M196.793,17.723c-0.01-0.02-0.019,0.277-0.027,0.277H170c7.49,0,13.563,5.751,13.563,13.258
		c0,2.543-0.698,4.756-1.911,6.792l-7.68,13.245l-5.605,9.689c0.541,0.028,1.085,0.023,1.633,0.023
		c8.766,0,16.652-3.779,22.138-9.786c1.843-2.017,3.413-4.294,4.655-6.758c2.051-4.068,3.207-8.502,3.207-13.371
		C200,26.224,198.844,21.791,196.793,17.723z"/>
	<path fill="#EC5647" d="M192.497,11.372C187,5.132,178.959,1.027,170,1.027s-17,3.853-22.497,10.094
		c-0.956,1.086-1.836,2.2-2.629,3.416l13.274,23.021c-1.09-1.958-1.712-3.89-1.712-6.291C156.437,23.762,162.51,18,170,18h26.766
		C195.609,15,194.17,13.271,192.497,11.372z"/>
	<path fill="#5BC15B" d="M170,44.516c-5.095,0-9.533-2.815-11.852-6.979l-13.274-23.042c-0.554,0.848-1.065,1.726-1.533,2.63
		C141.207,21.258,140,25.95,140,30.923c0,4.974,1.207,9.666,3.341,13.798c1.221,2.363,2.745,4.544,4.521,6.489
		c5.142,5.633,12.396,9.295,20.505,9.731l5.605-9.731l7.68-13.328C179.285,41.854,174.953,44.516,170,44.516z"/>
	<circle fill="#5EA0D4" cx="170" cy="30.924" r="10.5"/>
</g>
<g>
	<path fill="#666666" d="M220.632,24.375h20.642v3.072h-20.642V24.375z M220.632,34.553h20.642v3.072h-20.642V34.553z"/>
</g>
<g>
	<path fill="#FF00FF" d="M294.966,39.837v0.032l5.701,1.527h0.001v5.74c-0.001,1.204,0.977,2.182,2.18,2.181
		c1.203,0,2.192-0.977,2.192-2.181v-9.093l-8.114-2.177L294.966,39.837z"/>
	<path fill="#FF00FF" d="M308.622,21.039l-6.468-4.301l6.834-10.632l-8.552,8.958l-0.895-2.036l-1.009,4.015l-9.548,9.88h-18.704
		c0-2.617-2.204-4.877-4.838-4.877c-2.68,0-4.85,2.181-4.85,4.861v8.053h3.453c0,0,0-6.896,0-7.974s0.261-2.749,1.794-2.749
		c1.558,0,1.785,1.449,1.794,2.686l0,0l-0.002,2.192v9.574l-1.807,2.827v12.197c0,1.205,0.988,2.182,2.192,2.182
		c1.203,0,2.181-0.977,2.181-2.182V43.152l2.411-3.794h17.271v14.354c0,1.205,0.978,2.182,2.181,2.182
		c1.204,0,2.192-0.977,2.192-2.182V39.671l7.598-15.384l5.247,0.999c0.919,0.171,1.896-0.25,2.384-1.119
		C310.109,23.071,309.712,21.663,308.622,21.039z"/>
</g>
</svg>
